v 1.000000 1.000000 1.000000
v 1.000000 -1.000000 1.000000
v -1.000000 1.000000 1.000000
v -1.000000 -1.000000 1.000000
v -1.000000 -1.000000 3.275194
v -1.000000 1.000000 3.275194
v 1.000000 1.000000 3.275194
v 1.000000 -1.000000 3.275194
v 0.371870 3.450592 1.628130
v 1.000000 2.822462 1.000000
v -1.000000 2.822462 1.000000
v -0.371870 3.450592 1.628130
v 1.000000 2.822462 3.275194
v 0.371870 3.450592 2.647063
v -0.371870 3.450592 2.647063
v -1.000000 2.822462 3.275194
v 0.378729 0.378729 -1.000000
v 1.000000 1.000000 -0.378729
v 0.378729 -0.378729 -1.000000
v 1.000000 -1.000000 -0.378729
v -0.378729 0.378729 -1.000000
v -1.000000 1.000000 -0.378729
v -0.378729 -0.378729 -1.000000
v -1.000000 -1.000000 -0.378729
v 2.804235 -0.264420 2.539613
v 2.068654 -1.000000 3.275194
v 2.804235 0.264420 2.539613
v 2.068654 1.000000 3.275194
v 2.804235 -0.264420 1.735580
v 2.068654 -1.000000 1.000000
v 2.068654 1.000000 1.000000
v 2.804235 0.264420 1.735580
v 1.000000 -2.140615 3.275194
v 0.248356 -2.892259 2.523550
v -1.000000 -2.140615 3.275194
v -0.248356 -2.892259 2.523550
v 0.248356 -2.892259 1.751644
v 1.000000 -2.140615 1.000000
v -0.248356 -2.892259 1.751644
v -1.000000 -2.140615 1.000000
v -2.970072 0.335196 2.610389
v -2.305267 1.000000 3.275194
v -2.970072 -0.335196 2.610389
v -2.305267 -1.000000 3.275194
v -2.970072 0.335196 1.664804
v -2.305267 1.000000 1.000000
v -2.970072 -0.335196 1.664804
v -2.305267 -1.000000 1.000000
f 7 5 8
f 10 12 9
f 15 13 14
f 14 10 9
f 12 16 15
f 3 10 1
f 12 14 9
f 1 13 7
f 6 11 3
f 7 16 6
f 24 19 20
f 20 17 18
f 23 22 21
f 18 21 22
f 21 19 23
f 18 2 20
f 22 1 18
f 20 4 24
f 3 24 4
f 29 31 32
f 28 32 31
f 26 27 28
f 30 25 26
f 32 25 29
f 8 28 7
f 2 26 8
f 7 31 1
f 1 30 2
f 37 33 34
f 34 35 36
f 36 40 39
f 38 39 40
f 8 38 2
f 37 36 39
f 5 33 8
f 4 35 5
f 2 40 4
f 45 48 47
f 44 47 48
f 42 43 44
f 46 41 42
f 3 42 6
f 6 44 5
f 47 41 45
f 5 48 4
f 4 46 3
f 7 6 5
f 10 11 12
f 15 16 13
f 14 13 10
f 12 11 16
f 3 11 10
f 12 15 14
f 1 10 13
f 6 16 11
f 7 13 16
f 24 23 19
f 20 19 17
f 23 24 22
f 18 17 21
f 21 17 19
f 18 1 2
f 22 3 1
f 20 2 4
f 3 22 24
f 29 30 31
f 28 27 32
f 26 25 27
f 30 29 25
f 32 27 25
f 8 26 28
f 2 30 26
f 7 28 31
f 1 31 30
f 37 38 33
f 34 33 35
f 36 35 40
f 38 37 39
f 8 33 38
f 37 34 36
f 5 35 33
f 4 40 35
f 2 38 40
f 45 46 48
f 44 43 47
f 42 41 43
f 46 45 41
f 3 46 42
f 6 42 44
f 47 43 41
f 5 44 48
f 4 48 46
