# Blender 5.0.0
# www.blender.org
o Cube
v 1.000000 1.000000 1.000000
v 1.000000 1.000000 -1.000000
v 1.000000 -1.000000 1.000000
v 1.000000 -1.000000 -1.000000
v -1.000000 1.000000 1.000000
v -1.000000 1.000000 -1.000000
v -1.000000 -1.000000 1.000000
v -1.000000 -1.000000 -1.000000
s 0
f 5 3 1
f 3 8 4
f 7 6 8
f 2 8 6
f 1 4 2
f 5 2 6
f 5 7 3
f 3 7 8
f 7 5 6
f 2 4 8
f 1 3 4
f 5 1 2
o pinguino
v 11.257442 50.506950 -15.641386
v 13.465599 58.986881 -8.099079
v 16.933874 42.439720 -7.087502
v 11.458351 66.872360 -7.032606
v 4.568306 58.513901 1.137285
v 3.903528 61.601471 0.834446
v 5.960404 5.792793 0.749046
v 11.257441 5.133316 -5.845648
v 13.153687 14.858618 -10.073608
v 15.877984 22.781384 -1.470154
v 15.220834 29.004486 -10.855211
v 11.257442 25.236511 -14.780403
v 2.411443 56.701729 3.061890
v 5.723562 39.229134 5.869107
v 6.483729 21.551897 6.606424
v 11.257442 -0.007767 -16.144262
v 0.000001 0.012024 3.107027
v -2.643263 0.024895 -16.241985
v 11.257441 -0.007771 -8.152193
v 11.257441 -0.007767 -3.210152
v 2.643268 0.024895 -16.241983
v 5.718423 0.041222 8.926802
v 18.596130 22.449497 -1.879002
v 17.938980 28.672600 -11.264059
v -11.257436 50.506950 -15.641388
v -13.465595 58.986881 -8.099081
v -16.933870 42.439720 -7.087505
v 0.000003 48.740509 -18.798767
v 0.000003 60.736385 -18.167446
v -11.458347 66.872360 -7.032608
v 0.000003 65.607468 -15.342627
v -4.568304 58.513901 1.137284
v -3.903526 61.601471 0.834445
v 0.000001 67.569397 -1.535154
v 0.000002 69.366386 -8.031710
v 0.000001 62.802818 2.296972
v -5.960401 5.792793 0.749045
v 0.000001 6.430138 3.472021
v -11.257437 5.133316 -5.845650
v -13.153684 14.858618 -10.073610
v -15.877980 22.781384 -1.470156
v -15.220830 29.004486 -10.855215
v -11.257436 25.236511 -14.780405
v 0.000003 9.411509 -17.224133
v 0.000003 25.488249 -18.207047
v 0.000000 64.143112 9.938029
v 0.000001 57.031273 4.379978
v -2.411441 56.701729 3.061890
v 0.000001 40.025452 9.060093
v -5.723560 39.229134 5.869106
v -6.483727 21.551897 6.606423
v 0.000001 23.565573 9.586050
v 0.000003 4.290768 -17.274117
v -11.257436 -0.007767 -16.144264
v -11.257437 -0.007771 -8.152195
v -11.257437 -0.007767 -3.210154
v 0.000003 0.041225 -16.241985
v -5.718422 0.041222 8.926800
v -18.596127 22.449497 -1.879004
v -17.938976 28.672600 -11.264063
v 0.000002 0.026627 -6.567480
v 0.000002 0.019325 -1.730228
v -2.643263 0.024895 -19.357910
v 0.000003 2.879780 -18.763489
v 2.643268 0.024895 -19.357910
v 0.000003 0.041225 -19.357910
s 1
f 9 10 11
f 9 36 37
f 12 37 39
f 10 37 12
f 13 11 10
f 10 14 13
f 42 12 43
f 42 14 12
f 43 12 39
f 25 15 46
f 15 28 16
f 17 19 32
f 18 16 17
f 17 20 19
f 52 20 24
f 36 20 53
f 19 9 11
f 18 17 31
f 31 32 11
f 13 14 54
f 55 21 54
f 21 13 54
f 14 44 54
f 21 57 22
f 11 22 18
f 13 22 11
f 18 22 23
f 22 60 23
f 15 16 23
f 23 46 15
f 16 18 23
f 24 29 61
f 24 61 52
f 24 16 27
f 28 27 16
f 17 32 31
f 19 11 32
f 11 18 31
f 33 35 34
f 33 37 36
f 38 39 37
f 34 37 33
f 40 34 35
f 34 41 38
f 42 43 38
f 42 41 44
f 43 39 38
f 25 45 66
f 45 64 66
f 48 68 50
f 49 48 47
f 48 51 62
f 52 51 53
f 36 51 33
f 33 50 35
f 49 67 48
f 67 35 68
f 40 54 41
f 55 54 56
f 56 54 40
f 41 54 44
f 56 57 55
f 35 49 58
f 40 58 56
f 49 59 58
f 58 60 57
f 45 59 47
f 59 46 60
f 47 59 49
f 62 61 26
f 62 52 61
f 47 62 63
f 64 47 63
f 48 67 68
f 50 68 35
f 35 67 49
f 66 64 70
f 25 66 70
f 28 30 70
f 25 70 30
f 26 72 71
f 65 73 29
f 64 69 70
f 63 26 69
f 26 65 69
f 28 69 27
f 29 27 69
f 29 69 65
f 72 74 71
f 72 73 74
f 26 74 65
f 29 72 61
f 10 9 37
f 10 12 14
f 42 44 14
f 25 30 15
f 15 30 28
f 17 24 20
f 52 53 20
f 36 9 20
f 19 20 9
f 21 55 57
f 13 21 22
f 22 57 60
f 23 60 46
f 24 17 16
f 34 38 37
f 34 40 41
f 42 38 41
f 25 46 45
f 45 47 64
f 48 50 51
f 52 62 51
f 36 53 51
f 33 51 50
f 56 58 57
f 40 35 58
f 58 59 60
f 59 45 46
f 47 48 62
f 26 61 72
f 65 74 73
f 64 63 69
f 63 62 26
f 28 70 69
f 29 24 27
f 26 71 74
f 29 73 72
